<svg width="373" height="20" viewBox="0 0 373 20" fill="none" xmlns="http://www.w3.org/2000/svg">
<path fill-rule="evenodd" clip-rule="evenodd" d="M0 0V20H375V0H0Z" fill="black" fill-opacity="0.01"/>
<path d="M34.1738 10.2305V9.19922H30.7461V10.125H33.125V10.3301C33.125 11.7598 32.0996 12.7266 30.5879 12.7266C28.8887 12.7266 27.834 11.4023 27.834 9.26953C27.834 7.16602 28.9062 5.81836 30.582 5.81836C31.8359 5.81836 32.6855 6.42188 33.0488 7.56445H34.1211C33.8164 5.88867 32.457 4.8457 30.582 4.8457C28.2676 4.8457 26.75 6.59766 26.75 9.26953C26.75 11.9766 28.2441 13.6992 30.582 13.6992C32.7441 13.6992 34.1738 12.3164 34.1738 10.2305ZM35.6387 11.291C35.75 12.75 36.9863 13.6992 38.7793 13.6992C40.7129 13.6992 41.9375 12.709 41.9375 11.1562C41.9375 9.91406 41.2344 9.23438 39.4824 8.79492L38.5977 8.56055C37.4316 8.26172 36.9688 7.88086 36.9688 7.21875C36.9688 6.36328 37.7129 5.80078 38.8379 5.80078C39.8926 5.80078 40.6074 6.31641 40.7539 7.18359H41.8145C41.7266 5.81836 40.5078 4.8457 38.873 4.8457C37.0859 4.8457 35.8848 5.81836 35.8848 7.25391C35.8848 8.45508 36.5469 9.14648 38.0762 9.5332L39.1602 9.81445C40.3262 10.1074 40.8535 10.5645 40.8535 11.2852C40.8535 12.123 40.0156 12.7383 38.8789 12.7383C37.6777 12.7383 36.834 12.1758 36.7051 11.291H35.6387Z" fill="black"/>
<path d="M315.812 14.5H316.867V6.04492H315.818L313.568 7.66211V8.77539L315.719 7.2168H315.812V14.5ZM322.234 14.6992C324.133 14.6992 325.223 13.0938 325.223 10.2871C325.223 7.48633 324.115 5.8457 322.234 5.8457C320.342 5.8457 319.234 7.48047 319.234 10.2695C319.234 13.082 320.33 14.6992 322.234 14.6992ZM322.234 13.7793C320.986 13.7793 320.295 12.5312 320.295 10.2695C320.295 8.03711 320.998 6.77148 322.234 6.77148C323.471 6.77148 324.162 8.02539 324.162 10.2695C324.162 12.5371 323.482 13.7793 322.234 13.7793ZM329.793 14.6992C331.691 14.6992 332.781 13.0938 332.781 10.2871C332.781 7.48633 331.674 5.8457 329.793 5.8457C327.9 5.8457 326.793 7.48047 326.793 10.2695C326.793 13.082 327.889 14.6992 329.793 14.6992ZM329.793 13.7793C328.545 13.7793 327.854 12.5312 327.854 10.2695C327.854 8.03711 328.557 6.77148 329.793 6.77148C331.029 6.77148 331.721 8.02539 331.721 10.2695C331.721 12.5371 331.041 13.7793 329.793 13.7793ZM337.639 7.93164C337.639 6.73633 336.895 5.89844 335.84 5.89844C334.785 5.89844 334.035 6.74219 334.035 7.93164C334.035 9.12695 334.785 9.9707 335.84 9.9707C336.895 9.9707 337.639 9.12695 337.639 7.93164ZM335.84 9.2207C335.318 9.2207 334.973 8.71094 334.973 7.93164C334.973 7.15234 335.312 6.64844 335.84 6.64844C336.367 6.64844 336.701 7.14062 336.701 7.93164C336.701 8.70508 336.355 9.2207 335.84 9.2207ZM335.746 14.5L338.646 10.5332L341.928 6.04492H340.861L337.896 10.0938L334.668 14.5H335.746ZM342.531 12.6074C342.531 11.4121 341.787 10.5742 340.732 10.5742C339.678 10.5742 338.928 11.418 338.928 12.6074C338.928 13.8027 339.678 14.6465 340.732 14.6465C341.787 14.6465 342.531 13.8027 342.531 12.6074ZM340.732 13.8965C340.211 13.8965 339.865 13.3867 339.865 12.6074C339.865 11.8281 340.205 11.3242 340.732 11.3242C341.26 11.3242 341.594 11.8164 341.594 12.6074C341.594 13.3809 341.248 13.8965 340.732 13.8965Z" fill="#030303"/>
<path opacity="0.4" d="M346.5 7.5C346.5 6.39543 347.395 5.5 348.5 5.5H365.5C366.605 5.5 367.5 6.39543 367.5 7.5V13C367.5 14.1046 366.605 15 365.5 15H364.469H348.5C347.395 15 346.5 14.1046 346.5 13V7.5Z" stroke="black"/>
<path fill-rule="evenodd" clip-rule="evenodd" d="M369 12.374C369.863 12.152 370.5 11.3689 370.5 10.437C370.5 9.50507 369.863 8.72202 369 8.5V12.374Z" fill="black" fill-opacity="0.5"/>
<path fill-rule="evenodd" clip-rule="evenodd" d="M348 8C348 7.44772 348.448 7 349 7H365C365.552 7 366 7.44772 366 8V12.5C366 13.0523 365.552 13.5 365 13.5H349C348.448 13.5 348 13.0523 348 12.5V8Z" fill="black"/>
<path d="M165.113 7.55859H166.531C166.531 6.67969 167.117 6.07617 168.037 6.07617C168.922 6.07617 169.449 6.65625 169.449 7.41211C169.449 8.04492 169.191 8.44922 168.125 9.51562L165.195 12.4512V13.5H171.066V12.2168H167.246V12.1172L169.062 10.3477C170.516 8.94141 170.943 8.25 170.943 7.26562C170.943 5.85938 169.801 4.83398 168.119 4.83398C166.355 4.83398 165.113 5.95312 165.113 7.55859ZM173.844 12.334C174.4 12.334 174.781 11.9355 174.781 11.4082C174.781 10.875 174.4 10.4824 173.844 10.4824C173.293 10.4824 172.906 10.875 172.906 11.4082C172.906 11.9355 173.293 12.334 173.844 12.334ZM173.844 8.05664C174.4 8.05664 174.781 7.66406 174.781 7.13672C174.781 6.60352 174.4 6.21094 173.844 6.21094C173.293 6.21094 172.906 6.60352 172.906 7.13672C172.906 7.66406 173.293 8.05664 173.844 8.05664ZM178.742 13.5H180.254V5.04492H178.748L176.539 6.5918V8.04492L178.643 6.56836H178.742V13.5ZM185.762 13.7109C187.783 13.7109 188.984 12.0703 188.984 9.27539C188.984 6.46875 187.766 4.83398 185.762 4.83398C183.752 4.83398 182.533 6.46875 182.533 9.26367C182.533 12.0703 183.734 13.7109 185.762 13.7109ZM185.762 12.457C184.689 12.457 184.062 11.3613 184.062 9.26367C184.062 7.18359 184.701 6.09375 185.762 6.09375C186.822 6.09375 187.455 7.17773 187.455 9.26367C187.455 11.3613 186.834 12.457 185.762 12.457ZM193.994 5.04492V13.5H195.506V10.7285H197.34C199.051 10.7285 200.246 9.58008 200.246 7.9043C200.246 6.19922 199.092 5.04492 197.404 5.04492H193.994ZM195.506 6.31055H197.006C198.096 6.31055 198.711 6.86719 198.711 7.9043C198.711 8.91211 198.078 9.47461 197 9.47461H195.506V6.31055ZM210.646 13.5V5.04492H208.877L206.334 11.2441H206.229L203.686 5.04492H201.916V13.5H203.322V7.55273H203.404L205.742 13.207H206.82L209.158 7.55273H209.24V13.5H210.646Z" fill="#030303"/>
<path fill-rule="evenodd" clip-rule="evenodd" d="M51.9876 5.5C54.5506 5.5 56.863 6.53944 58.5 8.20688L57.4119 9.26404C56.0539 7.86553 54.126 6.99223 51.9876 6.99223C49.8629 6.99223 47.9461 7.85432 46.5896 9.23709L45.5 8.18164C47.1355 6.52896 49.4375 5.5 51.9876 5.5ZM56.3235 10.3214C55.2448 9.19175 53.7014 8.48446 51.9876 8.48446C50.2883 8.48446 48.7566 9.17976 47.6793 10.2927L48.7693 11.3486C49.5672 10.5054 50.7136 9.97668 51.9876 9.97668C53.2769 9.97668 54.4356 10.5182 55.2346 11.3793L56.3235 10.3214ZM54.1444 12.4385C53.6264 11.8454 52.8524 11.4689 51.9876 11.4689C51.139 11.4689 50.3779 11.8314 49.8602 12.4053L52.0225 14.5L54.1444 12.4385Z" fill="#030303"/>
<path fill-rule="evenodd" clip-rule="evenodd" d="M19.5 5C19.2239 5 19 5.22386 19 5.5V14C19 14.2761 19.2239 14.5 19.5 14.5H21C21.2761 14.5 21.5 14.2761 21.5 14V5.5C21.5 5.22386 21.2761 5 21 5H19.5ZM15.5 7.5C15.2239 7.5 15 7.72386 15 8V14C15 14.2761 15.2239 14.5 15.5 14.5H17C17.2761 14.5 17.5 14.2761 17.5 14V8C17.5 7.72386 17.2761 7.5 17 7.5H15.5ZM11 10C11 9.72386 11.2239 9.5 11.5 9.5H13C13.2761 9.5 13.5 9.72386 13.5 10V14C13.5 14.2761 13.2761 14.5 13 14.5H11.5C11.2239 14.5 11 14.2761 11 14V10ZM7.5 11.5C7.22386 11.5 7 11.7239 7 12V14C7 14.2761 7.22386 14.5 7.5 14.5H9C9.27614 14.5 9.5 14.2761 9.5 14V12C9.5 11.7239 9.27614 11.5 9 11.5H7.5Z" fill="black"/>
</svg>
